<svg width="32" height="26" viewBox="0 0 32 26" fill="none" xmlns="http://www.w3.org/2000/svg">
<path d="M28.6982 25.6397C30.1391 25.6397 31.3072 24.4918 31.3072 23.0757C31.3072 21.6597 30.1391 20.5117 28.6982 20.5117C27.2574 20.5117 26.0893 21.6597 26.0893 23.0757C26.0893 24.4918 27.2574 25.6397 28.6982 25.6397Z" fill="white"/>
<path d="M9.78369 25.6397C11.2246 25.6397 12.3926 24.4918 12.3926 23.0757C12.3926 21.6597 11.2246 20.5117 9.78369 20.5117C8.34281 20.5117 7.17474 21.6597 7.17474 23.0757C7.17474 24.4918 8.34281 25.6397 9.78369 25.6397Z" fill="white"/>
<path d="M30.6552 17.3068H10.2864L10.7215 16.6132C10.908 16.3158 10.9628 15.9562 10.8734 15.6178L10.4488 14.0114L29.3526 13.0461C30.0694 13.0102 30.6552 12.4032 30.6552 11.6981V3.20496C30.6552 2.49987 30.0681 1.92298 29.3507 1.92298H7.25223L6.9972 0.959565C6.92455 0.684789 6.76114 0.441486 6.53261 0.267823C6.30408 0.0941594 6.02335 -4.04994e-05 5.73447 1.30619e-08H1.30447C0.958506 1.30619e-08 0.626708 0.135066 0.382072 0.375484C0.137435 0.615903 0 0.94198 0 1.28198C0 1.62199 0.137435 1.94806 0.382072 2.18848C0.626708 2.4289 0.958506 2.56397 1.30447 2.56397H4.72611L8.20906 15.7331L6.83936 17.9157C6.71753 18.1099 6.65069 18.3326 6.64576 18.5607C6.64083 18.7887 6.69798 19.014 6.81131 19.2131C6.92418 19.4124 7.08921 19.5785 7.28932 19.6941C7.48942 19.8098 7.71734 19.8707 7.94947 19.8707H30.6552C31.0011 19.8707 31.3329 19.7357 31.5776 19.4953C31.8222 19.2548 31.9596 18.9288 31.9596 18.5888C31.9596 18.2488 31.8222 17.9227 31.5776 17.6823C31.3329 17.4418 31.0011 17.3068 30.6552 17.3068Z" fill="white"/>
</svg>
