<svg width="18" height="17" viewBox="0 0 18 17" fill="none" xmlns="http://www.w3.org/2000/svg">
<path d="M2.33325 5.96333V0.5H3.99992V2.16667H13.9999V0.5H15.6666V5.96417C16.6583 6.54167 17.3333 7.605 17.3333 8.83333V12.1667C17.3333 12.3877 17.2455 12.5996 17.0892 12.7559C16.9329 12.9122 16.7209 13 16.4999 13H15.6666V16.3333H13.9999V13H3.99992V16.3333H2.33325V13H1.49992C1.27891 13 1.06694 12.9122 0.910664 12.7559C0.754383 12.5996 0.666586 12.3877 0.666586 12.1667V8.83333C0.666586 7.605 1.34242 6.54167 2.33325 5.96333ZM9.83325 5.5H13.9999V3.83333H9.83325V5.5ZM3.99992 5.5H8.16659V3.83333H3.99992V5.5Z" fill="#005286"/>
</svg>
