<svg width="15" height="19" viewBox="0 0 15 19" fill="none" xmlns="http://www.w3.org/2000/svg">
<path d="M2.25 8.1875H12.75V2.28125C12.75 2.1072 12.6809 1.94028 12.5578 1.81721C12.4347 1.69414 12.2678 1.625 12.0938 1.625H2.90625C2.7322 1.625 2.56528 1.69414 2.44221 1.81721C2.31914 1.94028 2.25 2.1072 2.25 2.28125V8.1875ZM2.25 9.5V16.7188C2.25 16.8928 2.31914 17.0597 2.44221 17.1828C2.56528 17.3059 2.7322 17.375 2.90625 17.375H12.0938C12.2678 17.375 12.4347 17.3059 12.5578 17.1828C12.6809 17.0597 12.75 16.8928 12.75 16.7188V9.5H2.25ZM2.90625 0.3125H12.0938C12.6159 0.3125 13.1167 0.519921 13.4859 0.889134C13.8551 1.25835 14.0625 1.75911 14.0625 2.28125V16.7188C14.0625 17.2409 13.8551 17.7417 13.4859 18.1109C13.1167 18.4801 12.6159 18.6875 12.0938 18.6875H2.90625C2.38411 18.6875 1.88335 18.4801 1.51413 18.1109C1.14492 17.7417 0.9375 17.2409 0.9375 16.7188V2.28125C0.9375 1.75911 1.14492 1.25835 1.51413 0.889134C1.88335 0.519921 2.38411 0.3125 2.90625 0.3125ZM3.5625 4.90625H4.875V6.875H3.5625V4.90625ZM3.5625 10.8125H4.875V12.7812H3.5625V10.8125Z" fill="#005286"/>
</svg>
