<svg width="15" height="20" viewBox="0 0 15 20" fill="none" xmlns="http://www.w3.org/2000/svg">
<path d="M12.7858 12.8692L14.5 1.75001H10.8333V0.833344H7.16667V1.75001H2.58333C1.575 1.75001 0.75 2.57501 0.75 3.58334V7.25001C0.75 8.25834 1.575 9.08334 2.58333 9.08334H4.6275L5.21417 12.8692C4.17833 13.7125 3.5 14.9775 3.5 16.4167V17.3333C3.5 18.3417 4.325 19.1667 5.33333 19.1667H12.6667C13.675 19.1667 14.5 18.3417 14.5 17.3333V16.4167C14.5 14.9775 13.8217 13.7125 12.7858 12.8692ZM2.58333 7.25001V3.58334H3.78417L4.3525 7.25001H2.58333ZM12.3642 3.58334L11.0992 11.8333H6.91L5.63583 3.58334H12.3642ZM12.6667 17.3333H5.33333V16.4167C5.33333 14.9042 6.57083 13.6667 8.08333 13.6667H9.91667C11.4292 13.6667 12.6667 14.9042 12.6667 16.4167V17.3333ZM9 14.5833C9.50417 14.5833 9.91667 14.9958 9.91667 15.5C9.91667 16.0042 9.50417 16.4167 9 16.4167C8.49583 16.4167 8.08333 16.0042 8.08333 15.5C8.08333 14.9958 8.49583 14.5833 9 14.5833Z" fill="#005286"/>
</svg>
