<svg width="30" height="29" viewBox="0 0 30 29" fill="none" xmlns="http://www.w3.org/2000/svg">
<path d="M15.0097 9.69721C12.3869 9.69721 10.2465 11.7765 10.2465 14.3244C10.2465 16.8723 12.3869 18.9516 15.0097 18.9516C17.6325 18.9516 19.7729 16.8723 19.7729 14.3244C19.7729 11.7765 17.6325 9.69721 15.0097 9.69721ZM29.2957 14.3244C29.2957 12.4083 29.3136 10.5095 29.2028 8.59682C29.092 6.37521 28.5703 4.40353 26.898 2.77898C25.2222 1.15096 23.1961 0.647625 20.9092 0.540016C18.9367 0.432407 16.9821 0.449763 15.0133 0.449763C13.0408 0.449763 11.0862 0.432407 9.11732 0.540016C6.83041 0.647625 4.80078 1.15443 3.12848 2.77898C1.4526 4.407 0.934477 6.37521 0.823705 8.59682C0.712933 10.513 0.730799 12.4117 0.730799 14.3244C0.730799 16.2371 0.712933 18.1393 0.823705 20.052C0.934477 22.2736 1.45618 24.2453 3.12848 25.8698C4.80435 27.4979 6.83041 28.0012 9.11732 28.1088C11.0898 28.2164 13.0444 28.199 15.0133 28.199C16.9857 28.199 18.9403 28.2164 20.9092 28.1088C23.1961 28.0012 25.2257 27.4944 26.898 25.8698C28.5739 24.2418 29.092 22.2736 29.2028 20.052C29.3171 18.1393 29.2957 16.2405 29.2957 14.3244ZM15.0097 21.444C10.954 21.444 7.68086 18.2643 7.68086 14.3244C7.68086 10.3845 10.954 7.20484 15.0097 7.20484C19.0654 7.20484 22.3385 10.3845 22.3385 14.3244C22.3385 18.2643 19.0654 21.444 15.0097 21.444ZM22.6387 8.57599C21.6917 8.57599 20.9271 7.83314 20.9271 6.91326C20.9271 5.99337 21.6917 5.25052 22.6387 5.25052C23.5856 5.25052 24.3503 5.99337 24.3503 6.91326C24.3506 7.13169 24.3065 7.34803 24.2206 7.54988C24.1346 7.75174 24.0086 7.93515 23.8496 8.0896C23.6906 8.24405 23.5018 8.36652 23.294 8.44998C23.0862 8.53345 22.8635 8.57627 22.6387 8.57599Z" fill="black" fill-opacity="0.7"/>
</svg>
