<svg width="18" height="11" viewBox="0 0 18 11" fill="none" xmlns="http://www.w3.org/2000/svg">
<path d="M4.5 4.375V6.125H13.5V4.375C13.5 3.40977 14.3072 2.625 15.3 2.625H16.2C16.2 1.17578 14.9906 0 13.5 0H4.5C3.00937 0 1.8 1.17578 1.8 2.625H2.7C3.69281 2.625 4.5 3.40977 4.5 4.375ZM16.2 3.5H15.3C14.8022 3.5 14.4 3.89102 14.4 4.375V7H3.6V4.375C3.6 3.89102 3.19781 3.5 2.7 3.5H1.8C0.807187 3.5 0 4.28477 0 5.25C0 5.89531 0.365625 6.45312 0.9 6.75664V10.0625C0.9 10.3031 1.1025 10.5 1.35 10.5H3.15C3.3975 10.5 3.6 10.3031 3.6 10.0625V9.625H14.4V10.0625C14.4 10.3031 14.6025 10.5 14.85 10.5H16.65C16.8975 10.5 17.1 10.3031 17.1 10.0625V6.75664C17.6344 6.45312 18 5.89531 18 5.25C18 4.28477 17.1928 3.5 16.2 3.5Z" fill="#005286"/>
</svg>
