<svg width="19" height="19" viewBox="0 0 19 19" fill="none" xmlns="http://www.w3.org/2000/svg">
<path d="M14.7646 2.25626L15.2475 5.3121L18.0262 6.72918L16.625 9.50001L18.0342 12.2708L15.2317 13.6879L14.7487 16.7438L11.6692 16.2608L9.47624 18.4458L7.2754 16.2292L4.21957 16.7358L3.72874 13.6563L0.96582 12.2471L2.37499 9.47626L0.973737 6.72918L3.75249 5.29626L4.2354 2.26418L7.29915 2.77085L9.49999 0.546265L11.6929 2.73918L14.7646 2.25626ZM7.52082 5.54168C7.20588 5.54168 6.90383 5.66679 6.68113 5.88949C6.45843 6.11219 6.33332 6.41424 6.33332 6.72918C6.33332 7.04413 6.45843 7.34617 6.68113 7.56887C6.90383 7.79157 7.20588 7.91668 7.52082 7.91668C7.83576 7.91668 8.13781 7.79157 8.36051 7.56887C8.58321 7.34617 8.70832 7.04413 8.70832 6.72918C8.70832 6.41424 8.58321 6.11219 8.36051 5.88949C8.13781 5.66679 7.83576 5.54168 7.52082 5.54168ZM11.4792 11.0833C11.1642 11.0833 10.8622 11.2085 10.6395 11.4312C10.4168 11.6539 10.2917 11.9559 10.2917 12.2708C10.2917 12.5858 10.4168 12.8878 10.6395 13.1105C10.8622 13.3332 11.1642 13.4583 11.4792 13.4583C11.7941 13.4583 12.0961 13.3332 12.3188 13.1105C12.5415 12.8878 12.6667 12.5858 12.6667 12.2708C12.6667 11.9559 12.5415 11.6539 12.3188 11.4312C12.0961 11.2085 11.7941 11.0833 11.4792 11.0833ZM6.6579 13.4583L13.4583 6.65793L12.3421 5.54168L5.54165 12.3421L6.6579 13.4583Z" fill="#005286"/>
</svg>
