<svg width="20" height="20" viewBox="0 0 20 20" fill="none" xmlns="http://www.w3.org/2000/svg">
<path d="M6.15385 8.46154C6.15385 6.97917 6.68069 5.71114 7.73438 4.65745C8.78806 3.60377 10.0561 3.07692 11.5385 3.07692C13.0208 3.07692 14.2889 3.60377 15.3425 4.65745C16.3962 5.71114 16.9231 6.97917 16.9231 8.46154C16.9231 9.94391 16.3962 11.2119 15.3425 12.2656C14.2889 13.3193 13.0208 13.8462 11.5385 13.8462C10.0561 13.8462 8.78806 13.3193 7.73438 12.2656C6.68069 11.2119 6.15385 9.94391 6.15385 8.46154ZM0 18.4615C0 18.8782 0.152243 19.2388 0.45673 19.5433C0.761217 19.8478 1.12179 20 1.53846 20C1.97115 20 2.33173 19.8478 2.62019 19.5433L6.74279 15.4327C8.17708 16.4263 9.77564 16.9231 11.5385 16.9231C12.6843 16.9231 13.78 16.7007 14.8257 16.256C15.8714 15.8113 16.7728 15.2103 17.53 14.4531C18.2873 13.6959 18.8882 12.7945 19.3329 11.7488C19.7776 10.7031 20 9.60737 20 8.46154C20 7.31571 19.7776 6.21995 19.3329 5.17428C18.8882 4.12861 18.2873 3.22716 17.53 2.46995C16.7728 1.71274 15.8714 1.11178 14.8257 0.667067C13.78 0.222356 12.6843 0 11.5385 0C10.3926 0 9.29688 0.222356 8.2512 0.667067C7.20553 1.11178 6.30409 1.71274 5.54688 2.46995C4.78966 3.22716 4.1887 4.12861 3.74399 5.17428C3.29928 6.21995 3.07692 7.31571 3.07692 8.46154C3.07692 10.2244 3.57372 11.8229 4.56731 13.2572L0.444712 17.3798C0.148237 17.6763 0 18.0369 0 18.4615Z" fill="#005286"/>
</svg>
