<svg width="28" height="22" viewBox="0 0 28 22" fill="none" xmlns="http://www.w3.org/2000/svg">
<path d="M27.7514 3.04209C26.7123 3.47525 25.6101 3.75944 24.4815 3.88517C25.6702 3.21586 26.5598 2.16265 26.9844 0.921827C25.8671 1.54602 24.6444 1.98556 23.3693 2.22139C22.8366 1.68672 22.1929 1.26069 21.4781 0.969711C20.7632 0.678731 19.9925 0.528997 19.2136 0.529788C16.0696 0.529788 13.5201 2.92814 13.5201 5.88742C13.5201 6.30692 13.5706 6.71626 13.6679 7.10864C8.93595 6.88515 4.74097 4.752 1.93279 1.51022C1.42646 2.3279 1.1604 3.2576 1.16191 4.20396C1.16116 5.08605 1.39198 5.95465 1.83384 6.73259C2.27571 7.51054 2.91495 8.17372 3.69475 8.66322C2.79078 8.6362 1.90673 8.40646 1.11614 7.9931C1.11542 8.01548 1.11542 8.03752 1.11542 8.06058C1.11542 10.6556 3.07776 12.821 5.68196 13.3138C4.84341 13.5274 3.96422 13.5587 3.11091 13.4053C3.8353 15.5334 5.93784 17.0829 8.42924 17.1263C6.41245 18.6156 3.92198 19.4235 1.35832 19.4199C0.89882 19.4199 0.445806 19.3948 0 19.3449C2.60324 20.9189 5.633 21.7543 8.72728 21.7514C19.1996 21.7514 24.9262 13.5881 24.9262 6.50905C24.9262 6.27708 24.9205 6.04545 24.9096 5.81518C26.0249 5.05752 26.9873 4.11839 27.7514 3.04209Z" fill="black" fill-opacity="0.7"/>
</svg>
