<svg width="38" height="38" viewBox="0 0 38 38" fill="none" xmlns="http://www.w3.org/2000/svg">
<path d="M9.625 30.25C9.625 30.25 7.75 30.25 7.75 28.375C7.75 26.5 9.625 20.875 19 20.875C28.375 20.875 30.25 26.5 30.25 28.375C30.25 30.25 28.375 30.25 28.375 30.25H9.625ZM19 19C20.4918 19 21.9226 18.4074 22.9775 17.3525C24.0324 16.2976 24.625 14.8668 24.625 13.375C24.625 11.8832 24.0324 10.4524 22.9775 9.39752C21.9226 8.34263 20.4918 7.75 19 7.75C17.5082 7.75 16.0774 8.34263 15.0225 9.39752C13.9676 10.4524 13.375 11.8832 13.375 13.375C13.375 14.8668 13.9676 16.2976 15.0225 17.3525C16.0774 18.4074 17.5082 19 19 19Z" fill="white"/>
<path d="M19 37.5C29.2173 37.5 37.5 29.2173 37.5 19C37.5 8.78273 29.2173 0.5 19 0.5C8.78273 0.5 0.5 8.78273 0.5 19C0.5 29.2173 8.78273 37.5 19 37.5Z" stroke="white"/>
</svg>
