<svg width="36" height="24" viewBox="0 0 36 24" fill="none" xmlns="http://www.w3.org/2000/svg">
<path d="M35.2675 20.1814C35.0677 20.8727 34.676 21.5032 34.1315 22.0096C33.5871 22.5161 32.909 22.8808 32.1652 23.0673C29.4271 23.7515 18.4514 23.7515 18.4514 23.7515C18.4514 23.7515 7.47562 23.7515 4.73756 23.0709C3.99339 22.8851 3.31496 22.5205 2.77041 22.014C2.22586 21.5074 1.83435 20.8767 1.63521 20.1851C0.90271 17.6376 0.90271 12.3244 0.90271 12.3244C0.90271 12.3244 0.90271 7.01123 1.63521 4.46745C2.03867 3.06272 3.22947 1.95641 4.73756 1.58158C7.47562 0.897409 18.4514 0.897411 18.4514 0.897411C18.4514 0.897411 29.4271 0.897409 32.1652 1.58158C33.6772 1.95641 34.864 3.06272 35.2675 4.46745C36 7.01123 36 12.3244 36 12.3244C36 12.3244 36 17.6376 35.2675 20.1814ZM14.9651 7.44794V17.2009L24.0528 12.3608L14.9651 7.44794Z" fill="black" fill-opacity="0.7"/>
</svg>
